<?xml version="1.0" encoding="UTF-8" standalone="no"?>
<!-- Created with Inkscape (http://www.inkscape.org/) -->

<svg
   xmlns:dc="http://purl.org/dc/elements/1.1/"
   xmlns:cc="http://creativecommons.org/ns#"
   xmlns:rdf="http://www.w3.org/1999/02/22-rdf-syntax-ns#"
   xmlns:svg="http://www.w3.org/2000/svg"
   xmlns="http://www.w3.org/2000/svg"
   xmlns:sodipodi="http://sodipodi.sourceforge.net/DTD/sodipodi-0.dtd"
   xmlns:inkscape="http://www.inkscape.org/namespaces/inkscape"
   width="297mm"
   height="210mm"
   viewBox="0 0 297 210"
   id="svg3352"
   version="1.1"
   inkscape:version="0.91 r13725"
   sodipodi:docname="woobloo-orchestration.svg"
   inkscape:export-filename="/home/tom/go/src/github.com/woobloo/woobloo-game/docs/images/woobloo-orchestration.png"
   inkscape:export-xdpi="90"
   inkscape:export-ydpi="90">
  <defs
     id="defs3354" />
  <sodipodi:namedview
     inkscape:document-units="mm"
     pagecolor="#ffffff"
     bordercolor="#666666"
     borderopacity="1.0"
     inkscape:pageopacity="0.0"
     inkscape:pageshadow="2"
     inkscape:zoom="0.86831672"
     inkscape:cx="229.0933"
     inkscape:cy="432.80853"
     inkscape:current-layer="layer1"
     id="namedview3356"
     showgrid="false"
     inkscape:window-width="1918"
     inkscape:window-height="1060"
     inkscape:window-x="0"
     inkscape:window-y="18"
     inkscape:window-maximized="1" />
  <metadata
     id="metadata3358">
    <rdf:RDF>
      <cc:Work
         rdf:about="">
        <dc:format>image/svg+xml</dc:format>
        <dc:type
           rdf:resource="http://purl.org/dc/dcmitype/StillImage" />
        <dc:title />
      </cc:Work>
    </rdf:RDF>
  </metadata>
  <g
     inkscape:label="Layer 1"
     inkscape:groupmode="layer"
     id="layer1">
    <rect
       style="opacity:1;fill:#aaccff"
       id="rect3363"
       width="89.706131"
       height="29.251999"
       x="24.376667"
       y="87.791641" />
    <rect
       style="opacity:1;fill:#aaccff"
       id="rect3365"
       width="102.382"
       height="25.351732"
       x="177.46213"
       y="88.116669" />
    <rect
       style="opacity:1;fill:#aaccff"
       id="rect3367"
       width="19.17631"
       height="42.902931"
       x="14.300978"
       y="80.641159" />
    <rect
       style="opacity:1;fill:#aaccff"
       id="rect3369"
       width="17.551199"
       height="43.552975"
       x="99.131775"
       y="79.341072" />
    <rect
       style="opacity:1;fill:#aaccff"
       id="rect3371"
       width="18.85129"
       height="44.853065"
       x="168.68654"
       y="77.715965" />
    <rect
       style="opacity:1;fill:#aaccff"
       id="rect3373"
       width="17.551199"
       height="45.503109"
       x="267.16824"
       y="77.065918" />
    <flowRoot
       xml:space="preserve"
       id="flowRoot3375"
       style="font-style:normal;font-weight:normal;font-size:5.64444447px;line-height:125%;font-family:sans-serif;letter-spacing:0px;word-spacing:0px;fill:#000000;fill-opacity:1;stroke:none;stroke-width:1px;stroke-linecap:butt;stroke-linejoin:miter;stroke-opacity:1"><flowRegion
         id="flowRegion3377"><rect
           id="rect3379"
           width="57.203911"
           height="14.625999"
           x="41.277821"
           y="99.492447"
           style="font-size:5.64444447px" /></flowRegion><flowPara
         id="flowPara3381">woobloo-frontman</flowPara></flowRoot>    <flowRoot
       xml:space="preserve"
       id="flowRoot3375-7"
       style="font-style:normal;font-weight:normal;font-size:5.64444447px;line-height:125%;font-family:sans-serif;letter-spacing:0px;word-spacing:0px;fill:#000000;fill-opacity:1;stroke:none;stroke-width:1px;stroke-linecap:butt;stroke-linejoin:miter;stroke-opacity:1"
       transform="translate(198.77368,97.63353)"><flowRegion
         id="flowRegion3377-1"><rect
           id="rect3379-0"
           width="57.203911"
           height="14.626"
           x="-0.23654574"
           y="-1.337381"
           style="font-size:5.64444447px" /></flowRegion><flowPara
         id="flowPara3381-9">woobloo-game</flowPara></flowRoot>    <flowRoot
       xml:space="preserve"
       id="flowRoot3407"
       style="font-style:normal;font-weight:normal;font-size:40px;line-height:125%;font-family:sans-serif;letter-spacing:0px;word-spacing:0px;fill:#000000;fill-opacity:1;stroke:none;stroke-width:1px;stroke-linecap:butt;stroke-linejoin:miter;stroke-opacity:1"
       transform="scale(0.28222222,0.28222222)"><flowRegion
         id="flowRegion3409"><rect
           id="rect3411"
           width="35.70126"
           height="109.40708"
           x="63.340942"
           y="305.31451" /></flowRegion><flowPara
         id="flowPara3413">re</flowPara></flowRoot>    <flowRoot
       xml:space="preserve"
       id="flowRoot3415"
       style="font-style:normal;font-weight:normal;font-size:11.28888893px;line-height:125%;font-family:sans-serif;letter-spacing:0px;word-spacing:0px;fill:#000000;fill-opacity:1;stroke:none;stroke-width:1px;stroke-linecap:butt;stroke-linejoin:miter;stroke-opacity:1"><flowRegion
         id="flowRegion3417"><rect
           id="rect3419"
           width="17.551199"
           height="23.726622"
           x="19.501331"
           y="93.967072" /></flowRegion><flowPara
         id="flowPara3421">R</flowPara></flowRoot>    <flowRoot
       xml:space="preserve"
       id="flowRoot3415-5"
       style="font-style:normal;font-weight:normal;font-size:11.28888893px;line-height:125%;font-family:sans-serif;letter-spacing:0px;word-spacing:0px;fill:#000000;fill-opacity:1;stroke:none;stroke-width:1px;stroke-linecap:butt;stroke-linejoin:miter;stroke-opacity:1"
       transform="translate(103.4034,98.301759)"><flowRegion
         id="flowRegion3417-8"><rect
           id="rect3419-3"
           width="17.551199"
           height="23.726622"
           x="-1.1085645"
           y="-3.0222721" /></flowRegion><flowPara
         id="flowPara3421-5">W</flowPara></flowRoot>    <flowRoot
       xml:space="preserve"
       id="flowRoot3415-5-4"
       style="font-style:normal;font-weight:normal;font-size:11.28888893px;line-height:125%;font-family:sans-serif;letter-spacing:0px;word-spacing:0px;fill:#000000;fill-opacity:1;stroke:none;stroke-width:1px;stroke-linecap:butt;stroke-linejoin:miter;stroke-opacity:1"
       transform="translate(268.78297,96.353581)"><flowRegion
         id="flowRegion3417-8-4"><rect
           id="rect3419-3-1"
           width="17.551199"
           height="23.726622"
           x="-0.3740159"
           y="-3.0233343" /></flowRegion><flowPara
         id="flowPara3421-5-5">W</flowPara></flowRoot>    <flowRoot
       xml:space="preserve"
       id="flowRoot3415-3"
       style="font-style:normal;font-weight:normal;font-size:11.28888893px;line-height:125%;font-family:sans-serif;letter-spacing:0px;word-spacing:0px;fill:#000000;fill-opacity:1;stroke:none;stroke-width:1px;stroke-linecap:butt;stroke-linejoin:miter;stroke-opacity:1"
       transform="translate(174.58327,95.051546)"><flowRegion
         id="flowRegion3417-7"><rect
           id="rect3419-5"
           width="17.551199"
           height="23.726622"
           x="-1.1085645"
           y="-3.0222721" /></flowRegion><flowPara
         id="flowPara3421-59">R</flowPara></flowRoot>    <path
       style="opacity:1;fill:#1c241f"
       id="path3507"
       d="m 115.14199,104.64783 c 1.06389,-0.23215 2.14102,-0.39145 3.22463,-0.49351 0.84022,-0.24912 1.68148,-0.23005 2.54682,-0.19063 1.02964,0.0518 2.05993,0.0878 3.09065,0.10816 1.33614,0.0399 2.66884,-0.14591 3.99164,-0.31276 3.47998,-0.49878 6.97837,-0.85757 10.47397,-1.22651 3.45963,-0.40132 6.93975,-0.57612 10.41955,-0.67167 2.89686,-0.0648 5.79468,-0.0531 8.69205,-0.0508 2.91648,0.009 5.83119,0.0336 8.74547,-0.0894 1.56883,-0.14518 3.16184,-0.0616 4.72535,-0.25839 0.48553,0.0532 2.55636,-0.75933 0.64373,-0.0637 -0.3197,-0.54657 -0.89525,-0.90406 -1.33963,-1.35001 -0.47289,-0.482522 -1.03635,-0.858724 -1.53746,-1.30818 -0.21634,-0.239584 -0.8172,-0.493192 -0.74511,-0.873131 0.33873,-0.157243 0.66488,-0.34503 1.01618,-0.471726 0.22106,-0.07972 0.9784,0.34132 1.18339,0.44765 0.4284,0.262145 0.77725,0.619368 1.15168,0.947725 0.41858,0.321643 0.82878,0.654261 1.24558,0.978792 0.49008,0.38927 0.46781,0.87368 0.25938,1.41418 -0.21971,0.4853 -0.46255,0.96093 -0.72595,1.42395 -0.24518,0.47716 -0.51112,0.94396 -0.73037,1.43439 -0.30557,0.6451 -0.57206,1.31121 -0.79316,1.99005 -0.15871,0.38942 -0.0796,0.19833 -0.2372,0.57335 0,0 -0.87849,0.40437 -0.87849,0.40437 l 0,0 c 0.15757,-0.37354 0.0769,-0.18479 0.24203,-0.56618 0.21543,-0.68272 0.48338,-1.35153 0.78845,-1.9988 0.21316,-0.49658 0.4831,-0.9619 0.72367,-1.44415 0.27656,-0.45149 0.49974,-0.93662 0.73197,-1.412 0.22433,-0.49739 0.26867,-0.94004 -0.19983,-1.30332 -0.41591,-0.328713 -0.8321,-0.656503 -1.24896,-0.98337 -0.36621,-0.326139 -0.71375,-0.674277 -1.1381,-0.928116 -0.30985,-0.160031 -0.61439,-0.316935 -0.95956,-0.388354 -0.0666,-0.01377 -0.24781,0.02675 -0.20265,-0.02413 0.18204,-0.205136 0.44002,-0.327511 0.66003,-0.491265 -0.19799,0.113852 0.57726,0.660985 0.67902,0.759912 0.50447,0.447768 1.06478,0.830332 1.538,1.314281 0.4639,0.461852 1.06654,0.829482 1.38021,1.413662 -0.26959,0.25061 -0.52783,0.51402 -0.80876,0.75185 -0.36968,0.31295 -1.04591,0.16428 -1.47023,0.32714 -1.56248,0.16885 -3.14599,0.11014 -4.71213,0.23972 -2.91294,0.11752 -5.82632,0.089 -8.74122,0.0814 -2.89741,-5.7e-4 -5.79521,-0.007 -8.69214,0.0541 -3.47454,0.0956 -6.94897,0.26841 -10.40351,0.66883 -3.50229,0.37171 -7.00697,0.73599 -10.49286,1.24293 -1.33054,0.16834 -2.67053,0.35978 -4.01492,0.31249 -1.03048,-0.023 -2.06041,-0.0624 -3.08998,-0.11132 -0.86315,-0.036 -1.69941,-0.0228 -2.53992,0.20213 -1.08228,0.10507 -2.15844,0.26579 -3.21985,0.5048 0,0 0.76854,-0.58447 0.76854,-0.58447 z"
       inkscape:connector-curvature="0" />
    <rect
       style="opacity:1;fill:#aaeeff"
       id="rect3515"
       width="114.73284"
       height="27.301865"
       x="86.13089"
       y="167.4221" />
    <flowRoot
       xml:space="preserve"
       id="flowRoot3517"
       style="font-style:normal;font-weight:normal;font-size:40px;line-height:125%;font-family:sans-serif;letter-spacing:0px;word-spacing:0px;fill:#000000;fill-opacity:1;stroke:none;stroke-width:1px;stroke-linecap:butt;stroke-linejoin:miter;stroke-opacity:1"
       transform="matrix(0.28222222,0,0,0.28222222,17.226177,0.97506665)"><flowRegion
         id="flowRegion3519"><rect
           id="rect3521"
           width="360.46756"
           height="51.824409"
           x="327.06961"
           y="612.80597" /></flowRegion><flowPara
         id="flowPara3523">websockets</flowPara></flowRoot>    <path
       style="opacity:1;fill:#002b22"
       id="path3531"
       d="m 95.105394,180.74924 c -2.50727,0.041 -5.005101,-0.21717 -7.491733,-0.50758 -1.806956,-0.20098 -3.577575,-0.55326 -5.337493,-0.99494 -1.216593,-0.30556 -2.404822,-0.70228 -3.583311,-1.12915 -0.868539,-0.3767 -1.760178,-0.69594 -2.603469,-1.1274 -1.176367,-0.60004 -2.372975,-1.15794 -3.581332,-1.6902 -2.533255,-1.21667 -4.988879,-2.59292 -7.473106,-3.90701 -3.732578,-2.03878 -7.615205,-3.77158 -11.478684,-5.54112 -3.454555,-1.61278 -6.960994,-3.10825 -10.471355,-4.59414 -2.65465,-1.08305 -5.26846,-2.26071 -7.868522,-3.46786 -1.63466,-0.85229 -3.288747,-1.67432 -4.850229,-2.65708 -0.877579,-0.55086 -1.72891,-1.14837 -2.564087,-1.76229 -0.61358,-0.45541 -1.257337,-0.87223 -1.869994,-1.32816 -0.652793,-0.44789 -1.304609,-0.89613 -1.960067,-1.34024 -0.740419,-0.44215 -1.447164,-0.93691 -2.198042,-1.36147 -0.717841,-0.44409 -1.381372,-0.96426 -2.046028,-1.48281 -0.879469,-0.76854 -1.812623,-1.46323 -2.741658,-2.1697 -0.921922,-0.78064 -1.873032,-1.52577 -2.80839,-2.29108 -0.678881,-0.53301 -1.312186,-1.11836 -1.981896,-1.66225 -0.871819,-0.71414 -1.664519,-1.51084 -2.4231945,-2.34187 -0.7527214,-0.878 -1.4343248,-1.81049 -2.1277572,-2.73462 -0.660639,-0.98842 -1.298415,-1.99374 -1.8418841,-3.05179 -0.424931,-0.8506 -0.8354494,-1.70917 -1.2317922,-2.57355 -0.2963259,-0.70069 -0.4921693,-1.43442 -0.7571285,-2.14617 -0.2096118,-0.56098 -0.2573266,-1.15743 -0.4160102,-1.73171 -0.1795744,-0.72841 -0.2086675,-1.48153 -0.234799,-2.22791 -0.022956,-0.84974 -0.020969,-1.69989 -0.020086,-2.54986 -0.060278,-0.78232 0.089499,-1.54548 0.1942916,-2.31549 0.176512,-0.81792 0.2796024,-1.64697 0.4817198,-2.45902 0.1191215,-0.60403 0.2596792,-1.19684 0.4233655,-1.79003 0.2553795,-0.81128 0.6421058,-1.57589 1.0221728,-2.33472 0.3800311,-0.77588 0.7897763,-1.53859 1.2101465,-2.29323 0.3405912,-0.59367 0.7747,-1.13064 1.2484368,-1.6228 0.7380978,-0.6358 1.5508775,-1.22148 2.5173365,-1.4495 0.690189,-0.12804 1.39442,-0.13225 2.093926,-0.13731 0.769135,0.012 1.529499,0.0248 2.290862,-0.0918 0.829019,-0.11663 1.664488,-0.17182 2.500462,-0.20452 0.602398,0.0647 1.194705,0.18829 1.798201,0.24778 0.652629,-0.001 1.286112,0.11168 1.927895,0.21188 0.726812,0.10838 1.461232,0.14237 2.194872,0.16208 0.686127,0.0274 1.359362,0.18258 2.044107,0.2506 0.694714,-0.007 1.360728,0.18078 2.041416,0.28454 0.690512,0.18448 1.389518,0.31737 2.100109,0.39083 0.60649,-0.029 1.197375,0.14073 1.794851,0.17122 0.454623,-0.0678 0.892054,0.0494 1.339142,0.11426 0.616969,0.0779 1.239703,0.085 1.860598,0.0937 0.719528,0.007 1.439099,0.005 2.15865,0.005 0.885032,-0.0443 1.759,0.0459 2.635868,0.15163 0.921642,0.11924 1.851459,0.14437 2.779462,0.16327 1.065291,0.0149 2.130727,0.0127 3.196097,0.0126 1.331874,-0.0365 2.656693,0.11902 3.984667,0.19829 1.415697,0.08 2.833488,0.10693 4.251124,0.12105 0.949435,0.007 1.898904,0.005 2.848356,0.004 0.752303,-0.002 1.504603,-0.001 2.256906,-0.002 0.834898,-0.0141 1.662204,-0.16297 2.494108,-0.23895 0.779213,-0.0137 1.538232,-0.18594 2.308075,-0.28649 0.733885,-0.0385 1.451526,-0.14753 2.173701,-0.27617 0.73524,-0.10976 1.474194,-0.15359 2.209764,-0.26249 0.865702,-0.14502 1.742008,-0.18985 2.617811,-0.21816 0.844443,0.0242 1.674145,-0.1331 2.511216,-0.2198 0.996665,-0.0926 1.997744,-0.10785 2.997903,-0.11865 0.966924,-0.007 1.933877,-0.006 2.900821,-0.006 0.781623,-0.0151 1.548378,-0.17929 2.32933,-0.23612 0.938515,-0.0983 1.891839,-0.008 2.826509,-0.13035 0.602547,-0.12665 1.210383,-0.20837 1.824262,-0.25022 0.634915,-0.0339 1.270993,-0.0335 1.906614,-0.0346 0.650415,0.0976 1.296481,0.21137 1.951962,0.27151 0.64814,0.0503 1.2986,0.054 1.948304,0.0574 0.655427,0.0191 1.299007,0.0118 1.945239,-0.0995 0.604545,-0.0519 1.16553,-0.27937 1.752978,-0.41101 0.618936,-0.12256 1.246533,-0.24976 1.8542,-0.42399 0.601912,-0.18102 1.22117,-0.25697 1.822811,-0.4362 0.566409,-0.17109 1.156996,-0.21293 1.744465,-0.24079 0.54886,-0.12864 1.09855,-0.23385 1.65985,-0.28866 0.56006,-0.0442 1.09765,-0.21717 1.65509,-0.29489 0.55011,-0.0673 1.07597,-0.24379 1.62634,-0.32388 0.61836,-0.0738 1.24204,-0.0784 1.86392,-0.0841 0.62482,0.006 1.23866,0.0256 1.85216,-0.10064 0.57247,-0.13343 1.15846,-0.17689 1.74384,-0.20426 0.55889,-0.14296 1.13225,-0.21213 1.69483,-0.33403 0.67741,-0.13019 1.35018,-0.23212 1.9891,-0.50111 0.46604,-0.13501 2.34874,-1.07354 0.42747,-0.17774 -0.18269,-0.0812 -0.084,-0.0359 -0.29538,-0.13716 0,0 0.80987,-0.53379 0.80987,-0.53379 l 0,0 c 0.23366,0.117 0.12177,0.0499 0.33556,0.20152 -0.25085,0.22742 -0.49285,0.46501 -0.75256,0.68226 -0.35448,0.29652 -0.88898,0.34533 -1.28467,0.56274 -0.64614,0.25021 -1.32196,0.35259 -1.99906,0.48706 -0.56675,0.11408 -1.13777,0.20858 -1.70449,0.32243 -0.58339,0.031 -1.16579,0.0832 -1.73625,0.21591 -0.61662,0.11451 -1.23666,0.0835 -1.86176,0.0857 -0.61961,0.007 -1.24137,0.0135 -1.85658,0.0957 -0.54773,0.0879 -1.07483,0.26509 -1.62669,0.32333 -0.55569,0.0849 -1.09513,0.25682 -1.65733,0.29147 -0.56117,0.0609 -1.10824,0.18272 -1.662522,0.28441 -0.584251,0.032 -1.169853,0.0832 -1.731456,0.25935 -0.601906,0.17369 -1.224328,0.24567 -1.822952,0.43429 -0.613004,0.16194 -1.235219,0.30136 -1.857367,0.42147 -0.585004,0.14063 -1.15176,0.35134 -1.755715,0.40539 -0.649207,0.10409 -1.29857,0.0991 -1.955137,0.0863 -0.651431,-0.004 -1.3037,-0.01 -1.953269,-0.0644 -0.652819,-0.0641 -1.29584,-0.18608 -1.946565,-0.26385 -0.634458,0.002 -1.269472,0.002 -1.903019,0.0403 -0.61236,0.0466 -1.217049,0.13871 -1.820398,0.25284 -0.937322,0.0984 -1.886644,0.0309 -2.825618,0.12486 -0.781388,0.0642 -1.551556,0.23243 -2.336204,0.23182 -0.965753,-0.001 -1.931532,-0.004 -2.897259,0.005 -0.998957,0.0124 -1.998969,0.03 -2.994065,0.12696 -0.837777,0.0896 -1.669649,0.24049 -2.515517,0.21445 -0.874059,0.0305 -1.747862,0.0823 -2.611721,0.22707 -0.735562,0.1068 -1.476229,0.14711 -2.20993,0.26637 -0.722102,0.12929 -1.442957,0.22096 -2.175183,0.27195 -0.769343,0.10469 -1.530432,0.2668 -2.309639,0.28285 -0.83334,0.0785 -1.662653,0.22918 -2.500361,0.23251 -0.752106,1.9e-4 -1.504214,0.001 -2.256322,0.001 -0.948332,2.8e-4 -1.896689,0.001 -2.844989,-0.008 -1.417049,-0.0164 -2.834174,-0.0473 -4.249222,-0.12819 -1.328409,-0.0795 -2.654433,-0.22752 -3.986776,-0.18968 -1.066329,5.6e-4 -2.132714,0.002 -3.198963,-0.0131 -0.930165,-0.0208 -1.862026,-0.0484 -2.785528,-0.17059 -0.875391,-0.10523 -1.748539,-0.18193 -2.631578,-0.1404 -0.719622,2.8e-4 -1.439266,0.001 -2.158856,-0.006 -0.624454,-0.009 -1.250874,-0.0179 -1.870761,-0.10215 -0.445296,-0.0673 -0.882187,-0.15953 -1.335346,-0.1083 -0.597964,-0.058 -1.188649,-0.1796 -1.79431,-0.1755 -0.711095,-0.0792 -1.40889,-0.22117 -2.102924,-0.39455 -0.678195,-0.10886 -1.344934,-0.28124 -2.037261,-0.28111 -0.682558,-0.071 -1.355021,-0.22615 -2.040937,-0.24423 -0.736105,-0.0224 -1.47277,-0.0606 -2.20162,-0.17237 -0.640689,-0.10146 -1.275871,-0.19636 -1.926325,-0.2066 -0.599023,-0.0634 -1.187823,-0.19292 -1.788353,-0.23795 -0.834275,0.0346 -1.668104,0.0917 -2.494859,0.21307 -0.764113,0.10766 -1.528943,0.0857 -2.299232,0.0815 -0.695319,0.007 -1.396263,0.0134 -2.0799465,0.1555 -0.1122584,0.0299 -0.402669,0.18551 -0.3367755,0.0898 0.1187075,-0.17239 0.3558441,-0.22241 0.5186539,-0.35394 0.5118851,-0.41355 -1.587139,1.06898 -1.0397682,0.7565 -0.481799,0.47795 -0.9115557,1.01656 -1.258934,1.59982 -0.4320061,0.74719 -0.8276842,1.51958 -1.2158105,2.29053 -0.3807881,0.7519 -0.7608824,1.51282 -1.0246408,2.31455 -0.1601318,0.59437 -0.3170727,1.18263 -0.4265259,1.78947 -0.2064032,0.80866 -0.3089119,1.63371 -0.486382,2.44914 -0.1019686,0.76705 -0.2636828,1.52566 -0.2020217,2.30498 2.051e-4,0.84887 -0.00237,1.69791 0.019061,2.54658 0.025637,0.73877 0.05162,1.48445 0.2278973,2.20584 0.1588796,0.57208 0.2075968,1.16468 0.4105834,1.72529 0.2629106,0.7102 0.458698,1.44134 0.7520624,2.14089 0.3937829,0.86407 0.8025669,1.72205 1.2253104,2.57222 0.5399834,1.05382 1.1745411,2.055 1.8357008,3.03663 0.6899106,0.92274 1.3681185,1.85363 2.1194577,2.72867 0.757007,0.82714 1.549839,1.61872 2.422242,2.32581 0.6685,0.54456 1.299714,1.13191 1.977839,1.66515 0.93385,0.76483 1.882068,1.51135 2.804008,2.28964 0.931374,0.70491 1.863142,1.40297 2.746566,2.16811 0.66176,0.51561 1.32474,1.02984 2.040435,1.46987 0.749597,0.43029 1.460475,0.92203 2.200005,1.36905 0.657338,0.44442 1.313379,0.89005 1.965988,1.3413 0.614641,0.45253 1.251843,0.87633 1.865744,1.33039 0.833854,0.61109 1.682947,1.20622 2.555762,1.75953 1.555753,0.98124 3.20285,1.80476 4.832652,2.65417 2.594813,1.20921 5.203912,2.38818 7.853076,3.4743 3.50726,1.4916 7.016555,2.97897 10.466496,4.60053 3.864844,1.77256 7.748089,3.50984 11.48687,5.54188 2.488927,1.30994 4.950311,2.6804 7.490915,3.88735 1.21112,0.53444 2.415122,1.08497 3.593981,1.68786 0.843884,0.42069 1.726881,0.75038 2.593958,1.11976 1.17626,0.42377 2.361619,0.81938 3.575555,1.12282 1.752383,0.44181 3.517409,0.79117 5.316313,0.99473 2.488086,0.29234 4.991247,0.5526 7.500158,0.47604 0,0 -0.774751,0.57477 -0.774751,0.57477 z"
       inkscape:connector-curvature="0" />
    <path
       style="opacity:1;fill:#002b22"
       id="path3537"
       d="m 281.6223,100.66894 c 1.59142,-2.053983 2.93759,-4.288243 4.28633,-6.505471 1.23871,-2.086957 2.39085,-4.231857 3.31583,-6.47851 0.62589,-1.520164 0.7469,-1.99296 1.26055,-3.5668 0.94146,-2.974343 1.61115,-6.073674 1.58592,-9.209405 -0.005,-0.64214 -0.0736,-1.282212 -0.11041,-1.923319 -0.48872,-4.205193 -2.25061,-8.037943 -4.2449,-11.716157 -2.22357,-3.874358 -4.74647,-7.570523 -7.40843,-11.154596 -3.19785,-4.355953 -6.77671,-8.400353 -10.48817,-12.319688 -3.60797,-3.76986 -7.51231,-7.235707 -11.52009,-10.570981 -3.22459,-2.593227 -6.45913,-5.204655 -9.9246,-7.475024 -0.7211,-0.47242 -1.46049,-0.916302 -2.19074,-1.374452 -3.13389,-1.892425 -6.42748,-3.51488 -9.82927,-4.867293 -2.09715,-0.833741 -2.97604,-1.090656 -5.09157,-1.789845 -4.6806,-1.602412 -9.59697,-2.1786517 -14.48509,-2.736377 -5.09421,-0.5672805 -10.20312,-1.002332 -15.31353,-1.3950612 -3.63987,-0.3157468 -7.28547,-0.523827 -10.92018,-0.8930752 -3.16845,-0.280733 -6.3301,-0.633927 -9.50119,-0.8841554 -3.17666,-0.2579331 -6.34974,-0.5616564 -9.53112,-0.7570411 -3.26362,-0.1790364 -6.52738,-0.3371906 -9.79473,-0.4299046 -2.56096,-0.1330652 -5.1208,-0.2773016 -7.68426,-0.3527272 -2.17671,-0.048671 -4.34782,-0.2187392 -6.5238,-0.2955431 -2.90494,-0.076191 -5.81116,-0.081629 -8.71691,-0.087203 -2.49907,-0.00172 -4.99814,5e-7 -7.4972,-0.00102 -2.8565,-0.0022 -5.713,0.0011 -8.5695,0.00217 -2.21728,0.00133 -4.43457,0.00161 -6.65185,0.00169 -2.46949,3.669e-4 -4.93897,-0.00164 -7.40846,-0.00344 -3.32019,-1.479e-4 -6.64038,-0.0013 -9.96057,-0.00291 -3.799736,-0.012799 -7.598018,-0.020642 -11.396204,0.094206 -2.900516,0.098392 -5.801315,0.150037 -8.699243,0.3091039 -2.407068,0.1644921 -4.820604,0.166085 -7.229805,0.2735428 -2.265824,0.06137 -4.510225,0.3775814 -6.755554,0.6591997 -1.665447,0.1824685 -3.277395,0.6434139 -4.885898,1.089888 -1.427252,0.4805945 -2.86536,0.9306836 -4.269165,1.4772329 -1.406144,0.5456558 -2.84855,0.9866946 -4.272988,1.480669 -2.041327,0.6811623 -4.122471,1.2316797 -6.210972,1.7462087 -2.399732,0.623819 -4.790888,1.276134 -7.162927,1.998069 -1.460624,0.410803 -2.917415,0.847459 -4.319001,1.432052 -1.052145,0.437529 -2.05549,0.971106 -3.047766,1.528482 -2.092139,1.213971 2.886013,-1.682891 -1.487523,0.861382 -0.125699,0.07312 0.458981,-0.33586 0.380472,-0.213454 -0.08798,0.137165 -0.274932,0.17501 -0.412171,0.262875 -0.142045,0.09094 -0.283786,0.182366 -0.425679,0.273549 -0.786842,0.558634 -1.599887,1.076968 -2.391677,1.628322 -0.91994,0.628276 -1.77652,1.340221 -2.660628,2.015766 -0.785069,0.566107 -1.501682,1.216722 -2.283758,1.786101 -0.941026,0.665991 -1.825213,1.405351 -2.681038,2.176357 -0.858511,0.752659 -1.720249,1.502604 -2.561576,2.274847 -0.837028,0.786813 -1.665135,1.588428 -2.442892,2.434435 -0.802109,0.844324 -1.593626,1.700662 -2.364186,2.574061 -0.960882,1.092894 -1.8516938,2.244979 -2.6997427,3.426878 -0.765339,1.180089 -1.4629844,2.400221 -2.0473507,3.679624 -0.4324113,0.983164 -0.9062454,1.950548 -1.2748096,2.960173 -0.3204568,0.880682 -0.5114191,1.78873 -0.7045017,2.702221 -0.1879877,1.103514 -0.3674618,2.210367 -0.5091583,3.321022 -0.2395524,1.370688 -0.3418735,2.758183 -0.5076359,4.137854 -0.1935641,1.121628 -0.216664,2.262184 -0.3560041,3.389094 -0.1819998,1.074891 -0.2035937,2.166437 -0.3250844,3.24737 -0.1521489,1.176517 -0.2479884,2.358498 -0.3800358,3.537303 -0.10505,1.285226 -0.2253102,2.565516 -0.3929212,3.844143 -0.1201343,0.907525 -0.1670409,1.821635 -0.1892399,2.736023 0.025978,1.003199 -0.074125,1.99878 -0.1588385,2.996842 -0.0994,1.118537 -0.1428215,2.240514 -0.1652451,3.362855 -0.06102,1.233645 0.077388,2.461224 0.1807525,3.688459 0.096265,1.078893 0.3615852,2.128799 0.6247287,3.176165 0.2843662,1.112461 0.7262013,2.171409 1.13885,3.239742 0.3786457,1.102885 1.0297166,2.048298 1.6858875,2.996966 0.4255242,0.601342 0.9282729,1.136094 1.4122527,1.68792 0.3342863,0.351942 0.7739049,0.5567 1.1801441,0.806196 0.4783342,0.231044 0.9591014,0.448968 1.4281686,0.699634 0.6493769,0.31029 1.3519438,0.469006 2.0320618,0.696415 0.621851,0.21415 1.274269,0.279369 1.926491,0.314881 0.64493,0.02458 1.290513,0.02007 1.935779,0.01871 0.728242,-0.0017 1.456485,-0.0025 2.184728,-0.0034 0.744957,-5.64e-4 1.489914,-2.79e-4 2.234871,-5.64e-4 0.992239,8.46e-4 1.984477,0.0011 2.976717,0.0014 1.116767,-5.65e-4 2.233534,2.65e-4 3.350302,5.64e-4 1.290292,-0.01679 2.582463,0.04211 3.870701,-0.04093 1.354223,-0.129644 2.71196,-0.207515 4.071521,-0.247799 1.228299,-0.03203 2.457066,-0.03655 3.685706,-0.03927 0.777125,-0.0011 1.554249,-2.59e-4 2.331373,2.09e-4 0.808016,2.49e-4 1.616033,0.0014 2.424052,0.002 1.306844,5.64e-4 2.613691,0.0014 3.920535,0.0017 1.28828,-9.3e-5 2.576556,-8.47e-4 3.864833,-0.0017 0.927656,-8.47e-4 1.855315,-5.65e-4 2.782974,-8.47e-4 1.165967,-0.02633 2.32537,0.122383 3.487338,0.200587 1.321979,0.183278 2.653597,0.27894 3.978636,0.431337 1.115051,0.152199 2.235067,0.255275 3.358808,0.311847 0.975428,0.148006 1.955106,0.245813 2.939782,0.303674 1.189925,0.05294 2.38136,0.05364 3.572217,0.05623 1.274258,8.46e-4 2.548517,-3.7e-5 3.822773,-0.0011 0.949187,0.03394 1.9071,-0.06635 2.852203,0.0399 0.665327,0.117263 1.333748,0.203197 2.007743,0.247785 0.706978,0.03724 1.415234,0.03515 2.122957,0.03684 1.247772,0.04062 2.492494,0.171021 3.740223,0.238511 1.468092,0.01459 2.926893,0.175585 4.389476,0.284585 1.077412,0.08107 2.157501,0.109615 3.237543,0.12269 1.039001,-0.02791 2.068785,0.126148 3.102861,0.204304 1.39579,0.09694 2.795584,0.109671 4.19413,0.121378 1.365508,0.0082 2.731038,0.0064 4.096558,0.0042 0.80458,-0.0017 1.60917,-0.0028 2.41375,-0.0032 0.73158,-0.02546 1.45334,-0.17298 2.18435,-0.238568 1.04107,-0.195958 2.0997,-0.254477 3.14771,-0.39427 1.00289,-0.15978 2.01315,-0.243837 3.01533,-0.40605 0.8955,-0.169404 1.81072,-0.165295 2.71068,-0.286676 0.81958,-0.142903 1.64773,-0.221324 2.47772,-0.268114 0.83497,-0.185894 1.66275,-0.196429 2.51143,-0.150244 0.8171,0.134922 1.62602,0.308224 2.43707,0.473408 0.99237,0.277964 2.00487,0.472847 2.99961,0.740755 1.18231,0.312538 2.34075,0.704235 3.52191,1.024054 1.4337,0.32448 2.81144,0.776984 4.13844,1.408001 1.56858,0.700304 2.86459,1.862413 4.07257,3.059442 1.11096,1.089602 2.01022,2.362432 2.86805,3.653432 0.82965,1.29992 1.66933,2.59228 2.45128,3.92172 0.79781,1.35983 1.47962,2.78116 2.22497,4.16881 0.6526,1.09641 1.10397,2.29167 1.6123,3.45721 0.45817,1.04685 0.94846,2.07876 1.42659,3.1164 0.28152,0.7109 0.58955,1.41036 0.89002,2.11336 0.31815,0.80762 0.59992,1.62864 0.94668,2.42473 0.45526,1.10793 0.89931,2.22116 1.29351,3.3526 0.38299,1.08159 0.81473,2.14424 1.22422,3.2159 0.36781,1.07771 0.73167,2.15599 1.05699,3.24744 0.42391,1.2726 0.90789,2.52572 1.38199,3.78091 0.44715,1.48119 0.8802,2.9673 1.30771,4.45449 0.31841,1.02196 0.62729,2.04842 0.90612,3.08209 0.27973,0.84249 0.42136,1.71919 0.64698,2.57558 0.24498,1.09608 0.53692,2.18006 0.81558,3.26771 0.25642,1.11064 0.56267,2.20845 0.81526,3.32018 0.3249,1.32471 0.70906,2.63304 1.08461,3.94397 0.26296,1.05781 0.53486,2.11458 0.86756,3.15288 0.33202,1.05021 0.66958,2.0969 0.91331,3.17203 0.24489,1.08102 0.51632,2.1515 0.85772,3.20618 0.25249,0.77201 0.39345,1.57673 0.64223,2.34888 0.19152,0.7224 0.4546,1.42145 0.68693,2.13142 0.2002,0.6179 0.25192,1.31755 0.65927,1.84598 -0.0665,0.21881 0.43352,-0.0231 0.41029,-0.012 -0.22901,0.10938 -0.44035,0.25825 -0.67919,0.34408 -0.0724,0.026 0.11369,-0.10387 0.16647,-0.15983 0.0681,-0.0722 0.13052,-0.14947 0.19578,-0.2242 0.35302,-0.54141 0.66368,-1.11483 0.96428,-1.68799 0.32205,-0.75192 0.58999,-1.52007 0.78951,-2.31335 0.048,-0.18173 0.27189,-1.47753 0.44712,-1.52874 0.29089,-0.085 0.59308,-0.12499 0.88962,-0.18749 -0.0507,0.60513 -0.29093,1.18483 -0.47171,1.76213 -0.24747,0.62658 -0.53003,1.23953 -0.75111,1.87613 -0.24587,0.51622 -0.42112,1.05877 -0.61092,1.59675 -0.2287,0.50998 -0.35939,1.14038 -0.82083,1.49745 -1.07528,0.57181 -1.08506,0.70912 -1.83589,-0.0489 -0.37948,-0.37503 -0.88748,-0.54657 -1.35087,-0.78473 -0.52641,-0.24314 -1.08725,-0.41873 -1.6471,-0.57014 -0.55572,-0.18995 -1.06351,-0.47385 -1.5659,-0.7716 -0.5338,-0.36702 -0.98818,-0.82535 -1.4676,-1.25765 -0.22888,-0.24636 -0.47165,-0.47559 -0.69708,-0.72508 0,0 0.8268,-0.50103 0.8268,-0.50103 l 0,0 c 0.22356,0.24647 0.46273,0.47511 0.69076,0.71746 0.47511,0.4282 0.92659,0.88162 1.4593,1.24032 0.49504,0.29506 1.00087,0.56885 1.55079,0.75059 0.56365,0.15799 1.13073,0.33141 1.65863,0.58569 0.47506,0.23686 0.98454,0.42628 1.36852,0.80956 0.14143,0.13855 0.29715,0.28848 0.47239,0.38533 0.21587,0.1193 0.33854,0.0595 0.30605,0.0874 -0.20264,0.17401 -0.44865,0.28996 -0.67297,0.43495 0.51035,-0.26893 0.61544,-0.95862 0.84907,-1.4394 0.18241,-0.54017 0.36065,-1.08315 0.61188,-1.59679 0.21379,-0.63883 0.4957,-1.25237 0.75344,-1.87432 0.17572,-0.56977 0.40626,-1.13889 0.48293,-1.73006 0.28951,-0.21081 0.57813,-0.42285 0.86853,-0.63244 0.027,-0.0195 -0.0601,0.0341 -0.0782,0.0621 -0.04,0.0617 -0.0664,0.13161 -0.0919,0.20058 -0.14646,0.3957 -0.22573,0.81347 -0.30596,1.22608 -0.19577,0.79962 -0.46214,1.57181 -0.7761,2.33206 -0.2966,0.58041 -0.62283,1.14824 -0.95505,1.70759 -0.41388,0.50565 -1.17504,1.38229 -1.81742,0.92453 -0.40315,-0.54672 -0.47812,-1.24077 -0.67017,-1.87641 -0.23233,-0.71004 -0.49921,-1.40783 -0.68851,-2.13099 -0.24967,-0.77209 -0.39037,-1.57719 -0.63947,-2.35043 -0.34009,-1.05819 -0.61353,-2.13128 -0.85927,-3.21518 -0.24123,-1.07287 -0.58064,-2.11586 -0.91099,-3.16362 -0.33387,-1.03921 -0.60597,-2.0973 -0.86674,-3.1569 -0.37318,-1.31346 -0.75771,-2.62349 -1.08508,-3.94942 -0.25702,-1.10959 -0.56266,-2.20648 -0.81709,-3.31645 -0.27823,-1.08736 -0.57134,-2.17061 -0.81626,-3.2663 -0.22998,-0.8552 -0.36955,-1.73192 -0.64913,-2.57427 -0.27468,-1.03472 -0.58277,-2.06151 -0.89902,-3.08406 -0.42354,-1.48562 -0.85497,-2.96958 -1.30383,-4.44757 -0.47631,-1.25664 -0.95888,-2.51239 -1.38749,-3.78565 -0.32695,-1.08842 -0.68725,-2.16531 -1.05429,-3.24074 -0.41063,-1.0724 -0.84225,-2.13622 -1.22372,-3.21952 -0.39265,-1.12909 -0.83677,-2.23958 -1.29535,-3.34322 -0.34713,-0.79606 -0.62846,-1.61746 -0.94751,-2.42489 -0.30208,-0.70151 -0.60873,-1.40079 -0.8876,-2.11195 -0.47528,-1.0398 -0.96304,-2.07377 -1.4219,-3.12113 -0.50756,-1.16301 -0.96173,-2.35413 -1.60943,-3.45002 -0.74112,-1.38853 -1.41806,-2.81099 -2.22014,-4.16717 -0.78074,-1.32814 -1.62054,-2.61829 -2.44934,-3.91669 -0.85626,-1.28408 -1.74757,-2.55432 -2.85464,-3.63883 -1.2044,-1.188481 -2.49403,-2.338655 -4.05719,-3.031017 -1.32631,-0.622274 -2.70367,-1.065236 -4.13209,-1.392032 -1.18079,-0.322456 -2.34108,-0.710715 -3.52433,-1.021848 -0.99496,-0.263017 -2.00518,-0.463544 -2.99824,-0.734774 -0.8074,-0.165543 -1.61388,-0.337419 -2.429,-0.461476 -0.84697,-0.04199 -1.67216,-0.0061 -2.50672,0.159933 -0.82845,0.04954 -1.65394,0.133982 -2.47267,0.272646 -0.9008,0.108492 -1.81289,0.121268 -2.70762,0.288211 -1.00226,0.158809 -2.01286,0.243764 -3.0154,0.402584 -1.05055,0.133545 -2.10862,0.207507 -3.15271,0.393509 -0.73222,0.06951 -1.45621,0.223957 -2.19157,0.232884 -0.80302,4.5e-5 -1.60604,9.8e-5 -2.40906,-1.33e-4 -1.36445,-5.64e-4 -2.72891,2.57e-4 -4.093346,-0.0076 -1.400491,-0.01245 -2.802308,-0.02585 -4.199906,-0.125129 -1.033735,-0.07864 -2.064024,-0.224575 -3.102864,-0.196855 -1.079709,-0.01453 -2.159345,-0.04746 -3.23622,-0.131016 -1.46181,-0.111173 -2.920362,-0.266994 -4.387777,-0.283394 -1.248497,-0.06907 -2.494345,-0.200253 -3.743827,-0.229661 -0.709684,-0.0011 -1.420012,0.0011 -2.128763,-0.04064 -0.674079,-0.04855 -1.341786,-0.141097 -2.008465,-0.251279 -0.942938,-0.08844 -1.894953,-0.0064 -2.840705,-0.03592 -1.274479,5.65e-4 -2.548961,0.0028 -3.823437,0.0011 -1.19271,-0.0035 -2.386045,-0.0033 -3.577739,-0.05907 -0.984716,-0.06088 -1.963604,-0.165323 -2.940575,-0.302181 -1.123233,-0.06129 -2.242422,-0.169314 -3.357347,-0.319936 -1.324618,-0.146007 -2.653408,-0.254547 -3.975221,-0.42852 -1.162386,-0.07878 -2.323002,-0.220249 -3.489607,-0.190972 -0.926908,-1.55e-4 -1.853816,-9e-5 -2.780722,-8.46e-4 -1.28686,-8.47e-4 -2.57372,-0.0014 -3.860579,-0.0014 -1.308453,2.82e-4 -2.616906,0.0011 -3.925359,0.0017 -0.809326,5.64e-4 -1.618651,0.0017 -2.427977,5.64e-4 -0.775852,-8.46e-4 -1.5517,-0.0025 -2.327555,-0.0028 -1.226554,0.0011 -2.45325,0.0054 -3.679444,0.03818 -1.359571,0.04367 -2.717012,0.124799 -4.071577,0.251356 -1.29005,0.07317 -2.583271,0.02111 -3.874929,0.03683 -1.11719,2.03e-4 -2.23438,0.0011 -3.35157,5.64e-4 -0.993452,6.5e-5 -1.986904,2.82e-4 -2.980356,0.0014 -0.745031,-1.1e-4 -1.490061,2.82e-4 -2.235091,5.65e-4 -0.728515,5.64e-4 -1.457028,0.0017 -2.18554,0.0041 -0.64644,0.0011 -1.293289,0.0054 -1.939263,-0.02334 -0.657889,-0.04075 -1.314414,-0.11621 -1.940205,-0.336513 C 9.6133115,92.690723 8.9038991,92.533438 8.2544479,92.211327 7.7846368,91.95889 7.2966131,91.751124 6.8226454,91.508094 6.4046909,91.259798 5.9657945,91.035806 5.6276107,90.676154 5.1409975,90.122069 4.6425784,89.57924 4.2161096,88.97476 3.5574021,88.018882 2.9004937,87.067765 2.520098,85.957477 2.1072105,84.885261 1.6600521,83.824676 1.3734249,82.708845 1.1056865,81.657203 0.84606287,80.600755 0.74317298,79.517697 0.64222796,78.287501 0.49831684,77.05741 0.55742969,75.820921 c 0.017749,-1.124672 0.0659045,-2.248718 0.16436874,-3.369485 0.0826715,-0.995589 0.18206197,-1.988515 0.15613958,-2.989035 0.0213797,-0.917947 0.0670585,-1.835517 0.18730689,-2.746651 0.1707706,-1.27849 0.297805,-2.558085 0.3974436,-3.844161 0.1302255,-1.178373 0.2243309,-2.359888 0.3762111,-3.535809 0.1272838,-1.080446 0.1414096,-2.172852 0.3234576,-3.247944 0.1493568,-1.126207 0.1605168,-2.269083 0.360359,-3.390516 0.168621,-1.379287 0.2679282,-2.76716 0.5070223,-4.137902 0.1351974,-1.112944 0.3217426,-2.220214 0.5016223,-3.326585 0.1976101,-0.915927 0.3750768,-1.830496 0.6993459,-2.714153 0.3604657,-1.016082 0.8432057,-1.9833 1.276427,-2.969492 0.5811955,-1.28535 1.2783676,-2.508783 2.0393902,-3.696448 0.8459383,-1.185711 1.7382152,-2.339311 2.6972191,-3.436179 0.765473,-0.874768 1.555325,-1.730483 2.356176,-2.572526 0.771377,-0.855622 1.613552,-1.649331 2.445843,-2.444817 0.838084,-0.774123 1.6982,-1.524228 2.557369,-2.274109 0.854429,-0.774013 1.736683,-1.517333 2.677004,-2.186069 0.78694,-0.56327 1.499753,-1.217452 2.284726,-1.784014 0.888323,-0.66957 1.737928,-1.390608 2.657804,-2.018867 0.792288,-0.552004 1.605868,-1.069651 2.391176,-1.631962 1.748404,-1.124028 1.895216,-1.136477 3.587863,-2.136355 0.994483,-0.553796 1.999243,-1.085268 3.053481,-1.518525 1.403307,-0.573771 2.857294,-1.008196 4.315827,-1.417909 2.371256,-0.719943 4.763414,-1.364144 7.161053,-1.990369 2.089785,-0.5190701 4.172534,-1.0730054 6.214476,-1.7598152 1.424582,-0.4937492 2.866481,-0.9370097 4.272128,-1.4842685 1.40773,-0.5409136 2.845305,-0.9998422 4.277273,-1.4716441 1.608706,-0.4465136 3.224038,-0.8933324 4.889226,-1.0749074 2.244657,-0.2798044 4.489072,-0.5858704 6.753719,-0.6483968 2.408859,-0.1052528 4.821775,-0.1111521 7.228478,-0.2737736 2.894587,-0.1565153 5.792143,-0.2019582 8.68921,-0.2988914 3.798285,-0.1112873 7.596596,-0.1002583 11.396323,-0.090884 3.322862,-0.00161 6.645722,-0.00277 9.968592,-0.00291 2.47263,-0.00181 4.94526,-0.0038 7.4179,-0.00341 2.2158,1.157e-4 4.4316,3.951e-4 6.6474,0.00152 2.8557,7.056e-4 5.7114,0.0034 8.56709,-4.515e-4 2.49931,-0.00257 4.99863,-0.00507 7.49793,7.902e-4 2.9076,0.00859 5.81556,0.017512 8.72247,0.086957 2.17645,0.07523 4.34785,0.2469303 6.52508,0.2940567 2.55975,0.078961 5.11576,0.2272648 7.67308,0.3606746 3.26856,0.096727 6.53404,0.251819 9.79907,0.4305401 3.18087,0.1975178 6.35335,0.5060806 9.53,0.7598168 3.17152,0.2512683 6.33375,0.6047192 9.50272,0.8856206 3.62906,0.3679715 7.26883,0.5842237 10.90268,0.9028207 5.10818,0.3962877 10.21447,0.8383476 15.30687,1.4038527 4.89392,0.5563105 9.8164,1.1304676 14.49821,2.7500364 5.20573,1.732693 10.2531,3.772295 14.93345,6.674875 0.7312,0.45895 1.4714,0.903865 2.1936,1.376851 3.46835,2.271513 6.70405,4.886369 9.93159,7.48075 4.00949,3.337231 7.90639,6.813796 11.5141,10.58722 3.71765,3.919525 7.30288,7.963984 10.50629,12.321379 2.66827,3.584818 5.19726,7.282824 7.41959,11.163075 2.00677,3.686807 3.766,7.532762 4.27047,11.748247 0.0382,0.643814 0.10795,1.286533 0.11447,1.931442 0.0319,3.142403 -0.63045,6.251245 -1.5746,9.232081 -0.49948,1.542269 -0.64183,2.083119 -1.25244,3.573597 -0.92217,2.250914 -2.07617,4.398258 -3.31219,6.489883 -1.34109,2.213898 -2.68173,4.440047 -4.24581,6.505789 0,0 -0.88821,0.37486 -0.88821,0.37486 z"
       inkscape:connector-curvature="0" />
    <path
       sodipodi:type="star"
       style="opacity:1;fill:#ffdd55"
       id="path3549"
       sodipodi:sides="5"
       sodipodi:cx="200.5387"
       sodipodi:cy="167.09707"
       sodipodi:r1="19.398135"
       sodipodi:r2="9.6990677"
       sodipodi:arg1="0.54616656"
       sodipodi:arg2="1.1744851"
       inkscape:flatsided="false"
       inkscape:rounded="0"
       inkscape:randomized="0"
       d="m 217.11483,177.17276 -12.83212,-1.12838 -8.20426,9.93109 -2.89218,-12.55275 -11.98029,-4.73384 11.04465,-6.62965 0.80003,-12.85676 9.71816,8.45541 12.47473,-3.21208 -5.0385,11.85537 z"
       inkscape:transform-center-x="1.3782935"
       inkscape:transform-center-y="0.49189192" />
    <flowRoot
       xml:space="preserve"
       id="flowRoot3551"
       style="font-style:normal;font-weight:normal;font-size:13.75px;line-height:125%;font-family:sans-serif;letter-spacing:0px;word-spacing:0px;fill:#000000;fill-opacity:1;stroke:none;stroke-width:1px;stroke-linecap:butt;stroke-linejoin:miter;stroke-opacity:1"
       transform="matrix(0.25607754,-0.11863253,0.11863253,0.25607754,-89.257412,126.15242)"><flowRegion
         id="flowRegion3553"><rect
           id="rect3555"
           width="213.05589"
           height="50.672756"
           x="825.7356"
           y="539.10016" /></flowRegion><flowPara
         id="flowPara3557"
         style="font-size:17.5px">start here!</flowPara></flowRoot>  </g>
</svg>
